<svg xmlns="http://www.w3.org/2000/svg" xmlns:xlink="http://www.w3.org/1999/xlink" width="500" zoomAndPan="magnify" viewBox="0 0 375 374.999991" height="500" preserveAspectRatio="xMidYMid meet" version="1.0"><defs><g/></defs><path stroke-linecap="round" transform="matrix(0.558055, 0.501074, -0.501074, 0.558055, 309.055825, 59.616961)" fill="none" stroke-linejoin="miter" d="M 18.499502 18.500626 L 69.569653 18.500489 " stroke="#fcffde" stroke-width="37" stroke-opacity="1" stroke-miterlimit="4"/><g fill="#fcffde" fill-opacity="1"><g transform="translate(-0.0114614, 286.251509)"><g><path d="M 89.265625 -135.96875 C 90.429688 -140.75 92.460938 -144.367188 95.359375 -146.828125 C 98.253906 -149.285156 101.289062 -150.515625 104.46875 -150.515625 C 107.507812 -150.515625 110.441406 -149.425781 113.265625 -147.25 C 116.085938 -145.082031 118.15625 -141.6875 119.46875 -137.0625 C 119.46875 -126.78125 120.046875 -116.242188 121.203125 -105.453125 C 122.359375 -94.660156 122.9375 -82.601562 122.9375 -69.28125 C 122.9375 -60.445312 122.570312 -51.613281 121.84375 -42.78125 C 121.125 -33.957031 120.617188 -25.054688 120.328125 -16.078125 C 120.179688 -10.429688 118.550781 -6.191406 115.4375 -3.359375 C 112.332031 -0.535156 108.96875 0.875 105.34375 0.875 C 101.863281 0.875 98.640625 -0.425781 95.671875 -3.03125 C 92.703125 -5.644531 90.859375 -9.628906 90.140625 -14.984375 C 90.429688 -21.796875 91.007812 -27.84375 91.875 -33.125 C 92.75 -38.40625 93.1875 -44.234375 93.1875 -50.609375 C 93.1875 -52.203125 92.710938 -53.175781 91.765625 -53.53125 C 90.828125 -53.894531 88.765625 -54.296875 85.578125 -54.734375 C 80.078125 -55.023438 74.429688 -55.675781 68.640625 -56.6875 C 62.847656 -57.695312 57.195312 -58.203125 51.6875 -58.203125 C 50.675781 -58.203125 49.914062 -57.875 49.40625 -57.21875 C 48.90625 -56.570312 48.65625 -55.09375 48.65625 -52.78125 C 48.363281 -46.550781 48.179688 -40.828125 48.109375 -35.609375 C 48.035156 -30.398438 47.851562 -24.394531 47.5625 -17.59375 C 47.414062 -11.945312 45.75 -7.710938 42.5625 -4.890625 C 39.382812 -2.066406 36.054688 -0.65625 32.578125 -0.65625 C 29.109375 -0.65625 25.890625 -1.957031 22.921875 -4.5625 C 19.953125 -7.164062 18.101562 -11.144531 17.375 -16.5 C 17.664062 -31.125 18.097656 -44.59375 18.671875 -56.90625 C 19.253906 -69.21875 19.832031 -81.5625 20.40625 -93.9375 C 20.988281 -106.320312 21.351562 -119.753906 21.5 -134.234375 C 22.65625 -139.015625 24.679688 -142.632812 27.578125 -145.09375 C 30.472656 -147.550781 33.515625 -148.78125 36.703125 -148.78125 C 39.742188 -148.78125 42.675781 -147.691406 45.5 -145.515625 C 48.320312 -143.347656 50.382812 -139.945312 51.6875 -135.3125 C 51.550781 -126.914062 51.265625 -119.457031 50.828125 -112.9375 C 50.390625 -106.425781 50.171875 -99.117188 50.171875 -91.015625 C 50.171875 -89.566406 50.601562 -88.804688 51.46875 -88.734375 C 52.34375 -88.660156 54.445312 -88.476562 57.78125 -88.1875 C 62.269531 -87.75 66.828125 -87.128906 71.453125 -86.328125 C 76.085938 -85.535156 80.648438 -85.140625 85.140625 -85.140625 C 86.148438 -85.140625 87.125 -85.570312 88.0625 -86.4375 C 89.007812 -87.3125 89.847656 -89.34375 90.578125 -92.53125 C 89.992188 -97.445312 89.59375 -101.894531 89.375 -105.875 C 89.15625 -109.863281 89.046875 -113.882812 89.046875 -117.9375 C 89.046875 -120.6875 89.082031 -123.507812 89.15625 -126.40625 C 89.226562 -129.300781 89.265625 -132.488281 89.265625 -135.96875 Z M 89.265625 -135.96875 "/></g></g></g><g fill="#fcffde" fill-opacity="1"><g transform="translate(140.298133, 286.251509)"><g><path d="M 31.28125 -149.65625 C 37.070312 -149.65625 41.554688 -148.3125 44.734375 -145.625 C 47.921875 -142.945312 49.515625 -139.582031 49.515625 -135.53125 C 49.515625 -131.914062 49.1875 -127.828125 48.53125 -123.265625 C 47.882812 -118.703125 47.234375 -114.285156 46.578125 -110.015625 C 45.929688 -105.742188 45.609375 -102.085938 45.609375 -99.046875 C 45.609375 -98.460938 45.644531 -96.429688 45.71875 -92.953125 C 45.789062 -89.484375 46.046875 -85.210938 46.484375 -80.140625 C 46.921875 -75.078125 47.679688 -69.722656 48.765625 -64.078125 C 49.847656 -58.429688 51.398438 -53.179688 53.421875 -48.328125 C 55.453125 -43.472656 58.171875 -39.488281 61.578125 -36.375 C 64.984375 -33.269531 69.144531 -31.71875 74.0625 -31.71875 C 79.851562 -31.71875 84.453125 -33.234375 87.859375 -36.265625 C 91.265625 -39.304688 93.726562 -43.109375 95.25 -47.671875 C 96.769531 -52.234375 97.53125 -56.757812 97.53125 -61.25 C 97.53125 -68.34375 96.695312 -75.289062 95.03125 -82.09375 C 93.363281 -88.90625 91.804688 -95.710938 90.359375 -102.515625 C 89.347656 -107.878906 88.550781 -112.945312 87.96875 -117.71875 C 87.382812 -122.5 86.878906 -127.566406 86.453125 -132.921875 C 87.609375 -137.703125 89.632812 -141.320312 92.53125 -143.78125 C 95.425781 -146.25 98.46875 -147.484375 101.65625 -147.484375 C 104.695312 -147.484375 107.628906 -146.394531 110.453125 -144.21875 C 113.273438 -142.050781 115.335938 -138.648438 116.640625 -134.015625 C 117.359375 -126.191406 118.585938 -118.40625 120.328125 -110.65625 C 122.066406 -102.914062 123.734375 -95.171875 125.328125 -87.421875 C 126.921875 -79.671875 127.71875 -71.742188 127.71875 -63.640625 C 127.71875 -51.765625 125.546875 -41.15625 121.203125 -31.8125 C 116.859375 -22.476562 110.847656 -15.128906 103.171875 -9.765625 C 95.492188 -4.410156 86.734375 -1.734375 76.890625 -1.734375 C 66.316406 -1.734375 57.15625 -4.125 49.40625 -8.90625 C 41.664062 -13.6875 35.257812 -20.019531 30.1875 -27.90625 C 25.125 -35.800781 21.359375 -44.523438 18.890625 -54.078125 C 16.429688 -63.640625 15.203125 -73.125 15.203125 -82.53125 C 15.203125 -90.207031 15.3125 -97.015625 15.53125 -102.953125 C 15.75 -108.890625 15.929688 -115.257812 16.078125 -122.0625 C 16.222656 -126.40625 16.507812 -130.382812 16.9375 -134 C 17.375 -137.625 18.601562 -140.773438 20.625 -143.453125 C 22.65625 -146.140625 26.207031 -148.207031 31.28125 -149.65625 Z M 31.28125 -149.65625 "/></g></g></g><g fill="#fcffde" fill-opacity="1"><g transform="translate(278.870116, 286.251509)"><g><path d="M 20.421875 -54.078125 C 20.703125 -60.015625 21.097656 -66.492188 21.609375 -73.515625 C 22.117188 -80.546875 22.804688 -87.644531 23.671875 -94.8125 C 24.546875 -101.976562 25.414062 -108.675781 26.28125 -114.90625 C 27.144531 -118.664062 28.554688 -122.898438 30.515625 -127.609375 C 32.472656 -132.316406 34.972656 -136.40625 38.015625 -139.875 C 41.054688 -143.351562 44.53125 -145.09375 48.4375 -145.09375 C 51.039062 -145.09375 53.425781 -143.859375 55.59375 -141.390625 C 57.769531 -138.929688 59.507812 -135.960938 60.8125 -132.484375 C 62.113281 -129.015625 62.765625 -125.6875 62.765625 -122.5 C 62.765625 -121.050781 62.546875 -119.566406 62.109375 -118.046875 C 61.679688 -116.523438 61.101562 -114.894531 60.375 -113.15625 C 57.476562 -106.789062 55.085938 -99.734375 53.203125 -91.984375 C 51.328125 -84.234375 49.914062 -76.410156 48.96875 -68.515625 C 48.03125 -60.628906 47.5625 -53.210938 47.5625 -46.265625 C 47.5625 -42.492188 47.742188 -38.65625 48.109375 -34.75 C 48.472656 -30.84375 48.65625 -27.003906 48.65625 -23.234375 C 48.65625 -20.773438 48.4375 -17.84375 48 -14.4375 C 47.5625 -11.039062 46.546875 -8.070312 44.953125 -5.53125 C 43.367188 -3 40.835938 -1.734375 37.359375 -1.734375 C 33.453125 -1.734375 30.015625 -3.253906 27.046875 -6.296875 C 24.078125 -9.335938 21.722656 -12.921875 19.984375 -17.046875 C 18.242188 -21.171875 17.375 -24.898438 17.375 -28.234375 C 17.375 -32.140625 17.769531 -36.300781 18.5625 -40.71875 C 19.363281 -45.132812 19.984375 -49.585938 20.421875 -54.078125 Z M 20.421875 -54.078125 "/></g></g></g><g fill="#3e6913" fill-opacity="1"><g transform="translate(10.839007, 272.594171)"><g><path d="M 89.265625 -135.96875 C 90.429688 -140.75 92.460938 -144.367188 95.359375 -146.828125 C 98.253906 -149.285156 101.289062 -150.515625 104.46875 -150.515625 C 107.507812 -150.515625 110.441406 -149.425781 113.265625 -147.25 C 116.085938 -145.082031 118.15625 -141.6875 119.46875 -137.0625 C 119.46875 -126.78125 120.046875 -116.242188 121.203125 -105.453125 C 122.359375 -94.660156 122.9375 -82.601562 122.9375 -69.28125 C 122.9375 -60.445312 122.570312 -51.613281 121.84375 -42.78125 C 121.125 -33.957031 120.617188 -25.054688 120.328125 -16.078125 C 120.179688 -10.429688 118.550781 -6.191406 115.4375 -3.359375 C 112.332031 -0.535156 108.96875 0.875 105.34375 0.875 C 101.863281 0.875 98.640625 -0.425781 95.671875 -3.03125 C 92.703125 -5.644531 90.859375 -9.628906 90.140625 -14.984375 C 90.429688 -21.796875 91.007812 -27.84375 91.875 -33.125 C 92.75 -38.40625 93.1875 -44.234375 93.1875 -50.609375 C 93.1875 -52.203125 92.710938 -53.175781 91.765625 -53.53125 C 90.828125 -53.894531 88.765625 -54.296875 85.578125 -54.734375 C 80.078125 -55.023438 74.429688 -55.675781 68.640625 -56.6875 C 62.847656 -57.695312 57.195312 -58.203125 51.6875 -58.203125 C 50.675781 -58.203125 49.914062 -57.875 49.40625 -57.21875 C 48.90625 -56.570312 48.65625 -55.09375 48.65625 -52.78125 C 48.363281 -46.550781 48.179688 -40.828125 48.109375 -35.609375 C 48.035156 -30.398438 47.851562 -24.394531 47.5625 -17.59375 C 47.414062 -11.945312 45.75 -7.710938 42.5625 -4.890625 C 39.382812 -2.066406 36.054688 -0.65625 32.578125 -0.65625 C 29.109375 -0.65625 25.890625 -1.957031 22.921875 -4.5625 C 19.953125 -7.164062 18.101562 -11.144531 17.375 -16.5 C 17.664062 -31.125 18.097656 -44.59375 18.671875 -56.90625 C 19.253906 -69.21875 19.832031 -81.5625 20.40625 -93.9375 C 20.988281 -106.320312 21.351562 -119.753906 21.5 -134.234375 C 22.65625 -139.015625 24.679688 -142.632812 27.578125 -145.09375 C 30.472656 -147.550781 33.515625 -148.78125 36.703125 -148.78125 C 39.742188 -148.78125 42.675781 -147.691406 45.5 -145.515625 C 48.320312 -143.347656 50.382812 -139.945312 51.6875 -135.3125 C 51.550781 -126.914062 51.265625 -119.457031 50.828125 -112.9375 C 50.390625 -106.425781 50.171875 -99.117188 50.171875 -91.015625 C 50.171875 -89.566406 50.601562 -88.804688 51.46875 -88.734375 C 52.34375 -88.660156 54.445312 -88.476562 57.78125 -88.1875 C 62.269531 -87.75 66.828125 -87.128906 71.453125 -86.328125 C 76.085938 -85.535156 80.648438 -85.140625 85.140625 -85.140625 C 86.148438 -85.140625 87.125 -85.570312 88.0625 -86.4375 C 89.007812 -87.3125 89.847656 -89.34375 90.578125 -92.53125 C 89.992188 -97.445312 89.59375 -101.894531 89.375 -105.875 C 89.15625 -109.863281 89.046875 -113.882812 89.046875 -117.9375 C 89.046875 -120.6875 89.082031 -123.507812 89.15625 -126.40625 C 89.226562 -129.300781 89.265625 -132.488281 89.265625 -135.96875 Z M 89.265625 -135.96875 "/></g></g></g><g fill="#3e6913" fill-opacity="1"><g transform="translate(151.148597, 272.594171)"><g><path d="M 31.28125 -149.65625 C 37.070312 -149.65625 41.554688 -148.3125 44.734375 -145.625 C 47.921875 -142.945312 49.515625 -139.582031 49.515625 -135.53125 C 49.515625 -131.914062 49.1875 -127.828125 48.53125 -123.265625 C 47.882812 -118.703125 47.234375 -114.285156 46.578125 -110.015625 C 45.929688 -105.742188 45.609375 -102.085938 45.609375 -99.046875 C 45.609375 -98.460938 45.644531 -96.429688 45.71875 -92.953125 C 45.789062 -89.484375 46.046875 -85.210938 46.484375 -80.140625 C 46.921875 -75.078125 47.679688 -69.722656 48.765625 -64.078125 C 49.847656 -58.429688 51.398438 -53.179688 53.421875 -48.328125 C 55.453125 -43.472656 58.171875 -39.488281 61.578125 -36.375 C 64.984375 -33.269531 69.144531 -31.71875 74.0625 -31.71875 C 79.851562 -31.71875 84.453125 -33.234375 87.859375 -36.265625 C 91.265625 -39.304688 93.726562 -43.109375 95.25 -47.671875 C 96.769531 -52.234375 97.53125 -56.757812 97.53125 -61.25 C 97.53125 -68.34375 96.695312 -75.289062 95.03125 -82.09375 C 93.363281 -88.90625 91.804688 -95.710938 90.359375 -102.515625 C 89.347656 -107.878906 88.550781 -112.945312 87.96875 -117.71875 C 87.382812 -122.5 86.878906 -127.566406 86.453125 -132.921875 C 87.609375 -137.703125 89.632812 -141.320312 92.53125 -143.78125 C 95.425781 -146.25 98.46875 -147.484375 101.65625 -147.484375 C 104.695312 -147.484375 107.628906 -146.394531 110.453125 -144.21875 C 113.273438 -142.050781 115.335938 -138.648438 116.640625 -134.015625 C 117.359375 -126.191406 118.585938 -118.40625 120.328125 -110.65625 C 122.066406 -102.914062 123.734375 -95.171875 125.328125 -87.421875 C 126.921875 -79.671875 127.71875 -71.742188 127.71875 -63.640625 C 127.71875 -51.765625 125.546875 -41.15625 121.203125 -31.8125 C 116.859375 -22.476562 110.847656 -15.128906 103.171875 -9.765625 C 95.492188 -4.410156 86.734375 -1.734375 76.890625 -1.734375 C 66.316406 -1.734375 57.15625 -4.125 49.40625 -8.90625 C 41.664062 -13.6875 35.257812 -20.019531 30.1875 -27.90625 C 25.125 -35.800781 21.359375 -44.523438 18.890625 -54.078125 C 16.429688 -63.640625 15.203125 -73.125 15.203125 -82.53125 C 15.203125 -90.207031 15.3125 -97.015625 15.53125 -102.953125 C 15.75 -108.890625 15.929688 -115.257812 16.078125 -122.0625 C 16.222656 -126.40625 16.507812 -130.382812 16.9375 -134 C 17.375 -137.625 18.601562 -140.773438 20.625 -143.453125 C 22.65625 -146.140625 26.207031 -148.207031 31.28125 -149.65625 Z M 31.28125 -149.65625 "/></g></g></g><g fill="#3e6913" fill-opacity="1"><g transform="translate(289.720595, 272.594171)"><g><path d="M 20.421875 -54.078125 C 20.703125 -60.015625 21.097656 -66.492188 21.609375 -73.515625 C 22.117188 -80.546875 22.804688 -87.644531 23.671875 -94.8125 C 24.546875 -101.976562 25.414062 -108.675781 26.28125 -114.90625 C 27.144531 -118.664062 28.554688 -122.898438 30.515625 -127.609375 C 32.472656 -132.316406 34.972656 -136.40625 38.015625 -139.875 C 41.054688 -143.351562 44.53125 -145.09375 48.4375 -145.09375 C 51.039062 -145.09375 53.425781 -143.859375 55.59375 -141.390625 C 57.769531 -138.929688 59.507812 -135.960938 60.8125 -132.484375 C 62.113281 -129.015625 62.765625 -125.6875 62.765625 -122.5 C 62.765625 -121.050781 62.546875 -119.566406 62.109375 -118.046875 C 61.679688 -116.523438 61.101562 -114.894531 60.375 -113.15625 C 57.476562 -106.789062 55.085938 -99.734375 53.203125 -91.984375 C 51.328125 -84.234375 49.914062 -76.410156 48.96875 -68.515625 C 48.03125 -60.628906 47.5625 -53.210938 47.5625 -46.265625 C 47.5625 -42.492188 47.742188 -38.65625 48.109375 -34.75 C 48.472656 -30.84375 48.65625 -27.003906 48.65625 -23.234375 C 48.65625 -20.773438 48.4375 -17.84375 48 -14.4375 C 47.5625 -11.039062 46.546875 -8.070312 44.953125 -5.53125 C 43.367188 -3 40.835938 -1.734375 37.359375 -1.734375 C 33.453125 -1.734375 30.015625 -3.253906 27.046875 -6.296875 C 24.078125 -9.335938 21.722656 -12.921875 19.984375 -17.046875 C 18.242188 -21.171875 17.375 -24.898438 17.375 -28.234375 C 17.375 -32.140625 17.769531 -36.300781 18.5625 -40.71875 C 19.363281 -45.132812 19.984375 -49.585938 20.421875 -54.078125 Z M 20.421875 -54.078125 "/></g></g></g><path stroke-linecap="round" transform="matrix(0.558055, 0.501074, -0.501074, 0.558055, 318.325678, 54.542956)" fill="none" stroke-linejoin="miter" d="M 18.498992 18.500701 L 69.569144 18.500564 " stroke="#3e6913" stroke-width="37" stroke-opacity="1" stroke-miterlimit="4"/></svg>